<svg height="718" width="720" xmlns="http://www.w3.org/2000/svg">
<rect height="718" fill="#555" width="720"></rect>
<text fill="#7f7" font-family="Courier New" font-size="12" xml:space="preserve">
<tspan x="10" y="26">└─┬ jscpd@0.6.10 </tspan>
<tspan x="10" y="42">  ├─┬ blamer@0.1.13 </tspan>
<tspan x="10" y="58">  │ ├── bluebird@2.3.11 </tspan>
<tspan x="10" y="74">  │ └─┬ xml2js@0.4.17 </tspan>
<tspan x="10" y="90">  │   ├── sax@1.2.2 </tspan>
<tspan x="10" y="106">  │   └─┬ xmlbuilder@4.2.1 </tspan>
<tspan x="10" y="122">  │     └── lodash@4.17.4 </tspan>
<tspan x="10" y="138">  ├── bluebird@3.5.0 </tspan>
<tspan x="10" y="154">  ├─┬ cli@1.0.1 </tspan>
<tspan x="10" y="170">  │ └── exit@0.1.2 </tspan>
<tspan x="10" y="186">  ├─┬ cli-table@0.3.1 </tspan>
<tspan x="10" y="202">  │ └── colors@1.0.3 </tspan>
<tspan x="10" y="218">  ├── codemirror@5.25.0 </tspan>
<tspan x="10" y="234">  ├── colors@1.1.2 </tspan>
<tspan x="10" y="250">  ├── crypto@0.0.3 </tspan>
<tspan x="10" y="266">  ├─┬ glob@7.1.1 </tspan>
<tspan x="10" y="282">  │ ├── fs.realpath@1.0.0 </tspan>
<tspan x="10" y="298">  │ ├─┬ inflight@1.0.6 </tspan>
<tspan x="10" y="314">  │ │ └── wrappy@1.0.2 </tspan>
<tspan x="10" y="330">  │ ├── inherits@2.0.3 </tspan>
<tspan x="10" y="346">  │ ├─┬ minimatch@3.0.3 </tspan>
<tspan x="10" y="362">  │ │ └─┬ brace-expansion@1.1.6 </tspan>
<tspan x="10" y="378">  │ │   ├── balanced-match@0.4.2 </tspan>
<tspan x="10" y="394">  │ │   └── concat-map@0.0.1 </tspan>
<tspan x="10" y="410">  │ ├── once@1.4.0 </tspan>
<tspan x="10" y="426">  │ └── path-is-absolute@1.0.1 </tspan>
<tspan x="10" y="442">  ├─┬ js-yaml@3.8.3 </tspan>
<tspan x="10" y="458">  │ ├─┬ argparse@1.0.9 </tspan>
<tspan x="10" y="474">  │ │ └── sprintf-js@1.0.3 </tspan>
<tspan x="10" y="490">  │ └── esprima@3.1.3 </tspan>
<tspan x="10" y="506">  ├─┬ shelljs@0.7.7 </tspan>
<tspan x="10" y="522">  │ ├── interpret@1.0.2 </tspan>
<tspan x="10" y="538">  │ └─┬ rechoir@0.6.2 </tspan>
<tspan x="10" y="554">  │   └─┬ resolve@1.3.2 </tspan>
<tspan x="10" y="570">  │     └── path-parse@1.0.5 </tspan>
<tspan x="10" y="586">  ├── underscore@1.8.3 </tspan>
<tspan x="10" y="602">  └─┬ winston@2.3.1 </tspan>
<tspan x="10" y="618">    ├── async@1.0.0 </tspan>
<tspan x="10" y="634">    ├── colors@1.0.3 </tspan>
<tspan x="10" y="650">    ├── cycle@1.0.3 </tspan>
<tspan x="10" y="666">    ├── eyes@0.1.8 </tspan>
<tspan x="10" y="682">    ├── isstream@0.1.2 </tspan>
<tspan x="10" y="698">    └── stack-trace@0.0.9</tspan>
</text>
</svg>
